<?xml version="1.0" encoding="UTF-8"?>
<svg id="Layer_1" data-name="Layer 1" xmlns="http://www.w3.org/2000/svg" viewBox="0 0 377.57 377.57">
  <defs>
    <style>
      .cls-1 {
        fill: #fff;
      }

      .cls-2 {
        fill: #404041;
      }
    </style>
  </defs>
  <path class="cls-1" d="m377.57,188.78c0,104.27-84.52,188.79-188.79,188.79S0,293.05,0,188.78,84.52,0,188.78,0s188.79,84.52,188.79,188.78Z"/>
  <g>
    <path class="cls-2" d="m188.78,0C84.52,0,0,84.52,0,188.78s84.52,188.79,188.78,188.79,188.79-84.52,188.79-188.79S293.05,0,188.78,0Zm0,360.66c-94.77,0-171.87-77.1-171.87-171.88S94.01,16.91,188.78,16.91s171.88,77.1,171.88,171.87-77.1,171.88-171.88,171.88Z"/>
    <path class="cls-2" d="m296.71,176.8l-83.75-83.35c-3.23-3.22-7.55-4.92-11.93-4.92-2.19,0-4.39.42-6.49,1.29-6.3,2.63-10.41,8.78-10.41,15.61v20.99h-75.44c-9.34,0-16.91,7.57-16.91,16.9v90.93c0,9.33,7.57,16.9,16.91,16.9h75.43v20.98c0,6.84,4.11,12.99,10.42,15.61,2.1.88,4.3,1.3,6.49,1.3,4.38,0,8.69-1.71,11.92-4.92l83.76-83.35c3.19-3.18,4.98-7.49,4.98-11.99s-1.79-8.81-4.98-11.98Zm-95.68,95.33v-37.88h-92.34v-90.93h92.34v-37.89l83.75,83.35-83.75,83.35Z"/>
  </g>
</svg>