<?xml version="1.0" encoding="UTF-8"?>
<svg id="uuid-e7e9dc3d-0142-4341-ae67-5c02ae2beaea" data-name="13" xmlns="http://www.w3.org/2000/svg" viewBox="0 0 1000 1000">
  <defs>
    <style>
      .uuid-40ec9f42-86a6-4e5a-9d84-f10fabf40d5b {
        fill: #fff;
      }

      .uuid-40ec9f42-86a6-4e5a-9d84-f10fabf40d5b, .uuid-6ab847a2-0964-4514-b368-e56415330939 {
        stroke-width: 0px;
      }

      .uuid-6ab847a2-0964-4514-b368-e56415330939 {
        fill: #404041;
      }
    </style>
  </defs>
  <rect class="uuid-40ec9f42-86a6-4e5a-9d84-f10fabf40d5b" width="1000" height="1000"/>
  <g>
    <path class="uuid-6ab847a2-0964-4514-b368-e56415330939" d="m178.57,125c-29.59,0-53.57,23.98-53.57,53.57s23.98,53.57,53.57,53.57,53.57-23.98,53.57-53.57-23.98-53.57-53.57-53.57Zm0,102.34c-26.89,0-48.77-21.88-48.77-48.77s21.88-48.77,48.77-48.77,48.77,21.88,48.77,48.77-21.88,48.77-48.77,48.77Z"/>
    <path class="uuid-6ab847a2-0964-4514-b368-e56415330939" d="m185.43,151.52c-.92-.91-2.14-1.4-3.39-1.4-.62,0-1.24.12-1.84.37-1.79.74-2.96,2.49-2.96,4.43v5.95h-21.41c-2.65,0-4.8,2.15-4.8,4.8v25.8c0,2.65,2.15,4.8,4.8,4.8h21.41s0,5.95,0,5.95c0,1.94,1.17,3.69,2.96,4.43.6.25,1.22.37,1.84.37,1.24,0,2.47-.48,3.38-1.4l23.77-23.65c.9-.9,1.41-2.12,1.41-3.4s-.51-2.5-1.41-3.4l-23.77-23.65Zm-3.39,50.7v-10.75s-26.2,0-26.2,0v-25.8h26.2v-10.75s23.77,23.65,23.77,23.65l-23.77,23.65Z"/>
  </g>
  <path class="uuid-6ab847a2-0964-4514-b368-e56415330939" d="m363.97,225.6v4.42c0,1.17.95,2.12,2.11,2.12h12.17c1.17,0,2.11-.95,2.11-2.12v-4.25h25.72v4.25c0,1.17.95,2.11,2.11,2.11h12.17c1.17,0,2.11-.95,2.11-2.11v-4.59c4.56-1.22,8.05-5.67,8.05-10.82,0-1.48-.64-5.26-6.61-8.37-5.33-2.78-13.67-4.4-24.84-4.85v-2.9c5.94-.9,6.65-2.95,6.93-3.75.62-1.81.48-6.3.18-14.08-.26-6.79-.7-18.14.44-20.04.86-1.01,1.77-1.91,2.57-2.71,1.75-1.74,3.01-2.99,2.93-4.62-.04-.8-.42-1.52-1.07-2.03-.4-.32-.94-.73-1.49-1.15.43-.49.74-1.07.8-1.75.11-1.26-.68-2.11-1.38-2.85-.91-.97-2.16-2.3-2.67-4.99-.44-2.33-.35-3.68-.23-4.35.99-.33,2.53-.87,3.73-1.38,1.72-.74,2.64-2.93,2.17-5.21-.45-2.21-2.3-4.57-6.15-4.57-.57,0-1.18.05-1.81.16-.39.07-.85.14-1.37.23-13.97,2.32-30.24,6.14-32.12,15.25-.77,3.72,1.35,6.59,3.39,9.38,1.62,2.21,3.3,4.49,3.86,7.4.5,2.64.32,9.29.13,15.73-.5,17.81-.19,23.18,2.83,24.44,1.05.44,2.77.76,4.73.98v2.84c-10.94.47-19.04,2.1-24.12,4.86-5.4,2.94-6.21,6.49-6.21,8.34,0,5.42,3.88,10.08,8.8,10.99Zm12.17,2.31h-7.94v-2.14h7.94v2.14Zm42.12,0h-7.94v-2.14h7.94v2.14Zm-19.5-79.65l-.76-9.48,3.77-1.21c.01,1.02.12,2.25.4,3.73.63,3.34,2.15,5.35,3.23,6.56,0,0-.02,0-.03.01l-6.62.39Zm-16.6,25.01c.21-7.27.38-13.55-.21-16.64-.74-3.85-2.79-6.65-4.6-9.11-1.89-2.57-3.03-4.23-2.66-6.01,1.02-4.93,10.67-8.95,28.67-11.94.53-.09.99-.16,1.39-.23.39-.07.76-.1,1.09-.1.93,0,1.55.25,1.84.75.22.38.22.81.17,1.05-1.68.69-4.01,1.43-4.03,1.44,0,0,0,0,0,0,0,0,0,0,0,0l-8.71,2.8c-.93.3-1.54,1.2-1.46,2.18l1.06,13.22c.09,1.1,1.01,1.95,2.11,1.95.04,0,.08,0,.13,0l8.25-.49c.56.42,1.42,1.05,2.18,1.63-.35.37-.78.8-1.15,1.16-.87.86-1.86,1.84-2.84,3-1.99,2.34-1.95,9.1-1.42,22.91.19,4.91.42,10.99.08,12.43-.38.31-1.88.94-5.24,1.25,0,0-.02,0-.03,0-1.37.13-2.89.19-4.51.19-1.5,0-3.05-.06-4.5-.17,0,0,0,0,0,0-2.27-.17-4.11-.45-5.04-.73-1.08-2.38-.76-13.69-.56-20.54Zm7.56,25.62c.87.03,1.73.05,2.55.05h0c.92,0,1.78-.02,2.58-.05v2.4c-.5,0-1.01,0-1.52,0-.29,0-.57,0-.86,0-.03,0-.05,0-.08,0-.45,0-.9,0-1.35.01-.44,0-.89,0-1.33.01v-2.41Zm-1.95,6.68c.43-.01.87-.02,1.3-.03.31,0,.61-.01.92-.02.51,0,1.02,0,1.52-.01.29,0,.56,0,.85,0,.69,0,1.39,0,2.07.01.17,0,.34,0,.51,0,.54,0,1.07.02,1.59.03,14.51.35,21.82,2.57,25.43,4.45,4.22,2.2,4.34,4.38,4.34,4.62,0,3.63-3.01,6.93-6.31,6.93h-54.29c-3.3,0-6.31-3.3-6.31-6.93,0-3.17,6.12-8.41,28.38-9.05Z"/>
  <g>
    <path class="uuid-6ab847a2-0964-4514-b368-e56415330939" d="m646,190.99c-5.09-4.67-10.69-7.55-12.81-8.56-.98-2.87-4.06-12.72-3.37-20.32.05-.56.11-1.16.17-1.79.99-10.05,3.05-30.95-15.23-34.75-2.77-.58-5.3-.71-7.55-.4-2.25-.31-4.78-.18-7.55.4-18.29,3.8-16.22,24.71-15.23,34.75.06.63.12,1.23.17,1.79.69,7.6-2.39,17.45-3.37,20.32-2.13,1.01-7.73,3.89-12.82,8.56-6.64,6.09-6.22,23.01-6.15,24.92.02.63.33,1.22.83,1.61,12.25,9.43,27.87,14.62,43.99,14.62s31.81-5.18,44.07-14.58c.5-.38.8-.96.83-1.59.09-1.91.66-18.88-5.98-24.97Zm1.77,23.79c-11.4,8.46-25.81,13.1-40.68,13.1s-29.2-4.65-40.59-13.12c-.06-5.28.68-16.85,4.8-20.64,5.75-5.27,12.41-8.15,12.48-8.18.54-.23.96-.67,1.16-1.22.2-.53,4.81-13.09,3.9-23.01-.05-.57-.11-1.18-.18-1.82-1.3-13.14-1.56-27.38,11.86-30.17,2.39-.5,4.53-.6,6.34-.31.22.04.45.04.68,0,1.81-.29,3.95-.19,6.34.31,13.42,2.79,13.16,17.03,11.86,30.17-.06.64-.12,1.26-.18,1.83-.91,9.92,3.71,22.48,3.9,23.01.2.55.62.99,1.16,1.22.07.03,6.73,2.91,12.48,8.18,4.12,3.78,4.75,15.38,4.64,20.66Z"/>
    <path class="uuid-6ab847a2-0964-4514-b368-e56415330939" d="m622.14,189.07c-1.82-1.34-3.87-2.85-4.96-5.04-1.18-2.39-1.54-5.03-1.47-6.73l6.4-1.59c.55-.14,1.02-.48,1.31-.97.29-.48.38-1.06.24-1.61l-2.61-10.54c-.05-.22-.15-.42-.27-.61.34-5.1-.76-10.33-.81-10.57-.23-1.09-1.26-1.81-2.36-1.67-.07,0-7.3.97-10.39.97s-10.32-.96-10.39-.97c-1.11-.14-2.13.58-2.36,1.67-.07.31-1.6,7.66-.44,13.46.14.71.31,1.4.51,2.1l-1.4.35c-1.14.28-1.84,1.44-1.55,2.58l2.61,10.54c.14.55.48,1.02.97,1.31.33.2.71.31,1.1.31.17,0,.34-.02.51-.06l1.39-.35c-.24.84-.54,1.64-.91,2.38-1.09,2.19-3.14,3.7-4.96,5.04-1.03.76-1.93,1.42-2.58,2.16-2.03,2.3-1.4,7.4-1.16,8.91.15.96.95,1.7,1.92,1.78.22.02,5.44.53,8.92,5.31,3.92,5.38,5.84,9.43,5.89,9.53.35.75,1.1,1.23,1.93,1.23h0c.83,0,1.58-.48,1.93-1.23.02-.04,1.93-4.11,5.89-9.53,3.48-4.78,8.7-5.29,8.91-5.31.98-.08,1.78-.81,1.93-1.78.24-1.51.87-6.61-1.16-8.91-.65-.74-1.55-1.4-2.58-2.16Zm-23.85-34.85c2.48.3,6.62.75,8.92.75s6.44-.45,8.92-.75c.26,1.79.57,4.59.41,7.3l-17.89,4.44c-.19-.64-.34-1.27-.47-1.91-.66-3.31-.25-7.45.1-9.82Zm-.48,23.13l-1.59-6.41,14.83-3.68,6.39-1.58,1.59,6.41-5.73,1.42h0l-3.02.75-12.46,3.09Zm24.04,20.63c-2.45.58-6.95,2.21-10.26,6.74-1.9,2.6-3.35,4.9-4.38,6.66-1.03-1.76-2.48-4.06-4.38-6.66-3.3-4.53-7.8-6.17-10.25-6.74-.13-1.78-.01-3.5.32-3.94.35-.4,1.11-.96,1.91-1.55,1.99-1.46,4.7-3.46,6.25-6.58.97-1.95,1.46-3.86,1.7-5.41l8.7-2.16c.09,2.32.67,5.08,1.91,7.57,1.54,3.11,4.26,5.11,6.25,6.57.8.59,1.56,1.15,1.91,1.54.34.45.46,2.16.33,3.95Z"/>
  </g>
  <path class="uuid-6ab847a2-0964-4514-b368-e56415330939" d="m865.35,161.98c5.23,0,9.65-5,9.65-10.92v-7.02c0-2.29-.82-4.41-2.3-5.99-1.5-1.6-3.53-2.48-5.7-2.48h-72.72c-3.87,0-9.94,3.01-14.12,7.01l-7.33,7.02c-2.33,2.23-6.04,6.48-4.67,9.89.37.93,1.44,2.5,4.4,2.5h52.42l3.39,3.39h-34.09c-3.87,0-9.94,3.01-14.12,7.01l-7.33,7.02c-2.33,2.23-6.04,6.48-4.67,9.89.37.93,1.44,2.5,4.4,2.5h52.42l3.39,3.39h-34.09c-3.87,0-9.94,3.01-14.12,7.01l-7.33,7.02c-2.33,2.23-6.04,6.48-4.67,9.89.37.93,1.44,2.5,4.4,2.5h92.79c5.23,0,9.65-5,9.65-10.92v-7.02c0-2.29-.82-4.41-2.3-5.99-1.5-1.6-3.53-2.48-5.7-2.48h-14.44l-3.39-3.39h16.18c5.23,0,9.65-5,9.65-10.92v-7.02c0-2.29-.82-4.41-2.3-5.99-1.5-1.6-3.53-2.48-5.7-2.48h-14.45l-3.39-3.39h16.18Zm1.65-22.35c1.04,0,2.01.43,2.74,1.2.77.82,1.2,1.96,1.2,3.21v7.02c0,3.65-2.61,6.86-5.59,6.86h-20.25l-16.49-16.49h0s0,0,0,0c-.77-.77-1.66-1.38-2.64-1.8h41.02Zm-94.44,18.29c-.32,0-.52-.03-.63-.06.04-.68.92-2.66,3.71-5.32l7.33-7.02c3.8-3.63,8.83-5.88,11.31-5.88h24.88c-.97.42-1.86,1.03-2.63,1.8-1.62,1.62-2.51,3.76-2.51,6.05s.89,4.43,2.5,6.05l4.39,4.39h-48.35Zm0,29.8c-.32,0-.52-.03-.63-.06.04-.68.92-2.66,3.71-5.32l7.33-7.02c3.8-3.63,8.83-5.88,11.31-5.88h24.87c-.97.42-1.86,1.03-2.63,1.8-1.62,1.62-2.51,3.76-2.51,6.05s.89,4.43,2.5,6.05l4.4,4.39h-48.36Zm0,29.8c-.32,0-.52-.03-.63-.06.04-.68.92-2.66,3.71-5.32l7.33-7.02c3.8-3.63,8.83-5.88,11.31-5.88h38.15l16.65,16.65c.67.67,1.44,1.22,2.27,1.63h-78.8Zm82.57-3.19c-1.2,0-2.33-.47-3.17-1.32l-17.25-17.25s0,0,0,0l-7.56-7.56s0,0,0,0l-7.75-7.75c-.85-.85-1.31-1.98-1.31-3.17s.47-2.33,1.32-3.17c.85-.85,1.97-1.31,3.17-1.31s2.33.47,3.17,1.32l25.85,25.85s0,0,0,0l6.72,6.72c.85.85,1.31,1.97,1.31,3.17,0,1.2-.47,2.33-1.32,3.17-.85.85-1.97,1.31-3.17,1.31Zm11.86-15.1c1.04,0,2.01.43,2.74,1.2.77.82,1.2,1.96,1.2,3.21v7.02c0,3.65-2.61,6.86-5.59,6.86h-6.44c.83-.41,1.59-.96,2.27-1.63,1.62-1.61,2.51-3.76,2.51-6.05,0-2.28-.89-4.43-2.5-6.05l-4.56-4.56h10.38Zm-21.9-11.51l-16.49-16.49h0s0,0,0,0c-.77-.77-1.66-1.38-2.63-1.8h6.45l2.11,2.11s0,0,0,0l14.54,14.54c.67.67,1.44,1.22,2.27,1.63h-6.25Zm10.03-3.19c-1.2,0-2.33-.47-3.17-1.32l-17.25-17.25s0,0,0,0l-7.56-7.56s0,0,0,0l-7.75-7.75c-.85-.85-1.31-1.98-1.31-3.17s.47-2.33,1.32-3.17c.85-.85,1.97-1.31,3.17-1.31s2.33.47,3.17,1.32l29.57,29.57s0,0,0,0l2.99,2.99c.85.85,1.31,1.97,1.31,3.17,0,1.2-.47,2.33-1.32,3.17-.85.85-1.97,1.31-3.17,1.31Zm11.86-15.1c1.04,0,2.01.43,2.74,1.2.77.82,1.2,1.96,1.2,3.21v7.02c0,3.65-2.61,6.86-5.59,6.86h-6.43c.83-.41,1.59-.95,2.26-1.63,1.62-1.61,2.51-3.76,2.51-6.05,0-2.28-.89-4.43-2.5-6.05l-4.57-4.57h10.38Z"/>
  <g>
    <path class="uuid-6ab847a2-0964-4514-b368-e56415330939" d="m209.42,386.29c3.53,0,6.4-2.87,6.4-6.4s-2.87-6.4-6.4-6.4-6.4,2.87-6.4,6.4c0,3.53,2.87,6.4,6.4,6.4Zm0-8.97c1.41,0,2.56,1.15,2.56,2.56s-1.15,2.56-2.56,2.56-2.56-1.15-2.56-2.56c0-1.41,1.15-2.56,2.56-2.56Z"/>
    <path class="uuid-6ab847a2-0964-4514-b368-e56415330939" d="m201.42,389.81c-3.53,0-6.4,2.87-6.4,6.4s2.87,6.4,6.4,6.4,6.4-2.87,6.4-6.4-2.87-6.4-6.4-6.4Zm0,8.97c-1.41,0-2.56-1.15-2.56-2.56s1.15-2.56,2.56-2.56,2.56,1.15,2.56,2.56-1.15,2.56-2.56,2.56Z"/>
    <path class="uuid-6ab847a2-0964-4514-b368-e56415330939" d="m183.17,389.01h-8.97c-2.56,0-4.64,2.08-4.64,4.64s2.08,4.64,4.64,4.64h8.97c2.56,0,4.64-2.08,4.64-4.64s-2.08-4.64-4.64-4.64Zm0,5.44h-8.97c-.44,0-.8-.36-.8-.8s.36-.8.8-.8h8.97c.44,0,.8.36.8.8s-.36.8-.8.8Z"/>
    <path class="uuid-6ab847a2-0964-4514-b368-e56415330939" d="m158.35,383.57h-3.52v-3.52c0-3.09-2.51-5.6-5.6-5.6s-5.6,2.51-5.6,5.6v3.52h-3.52c-3.09,0-5.6,2.51-5.6,5.6s2.51,5.6,5.6,5.6h3.52v3.52c0,3.09,2.51,5.6,5.6,5.6s5.6-2.51,5.6-5.6v-3.52h3.52c3.09,0,5.6-2.51,5.6-5.6s-2.51-5.6-5.6-5.6Zm0,7.36h-5.44c-1.06,0-1.92.86-1.92,1.92v5.44c0,.97-.79,1.76-1.76,1.76s-1.76-.79-1.76-1.76v-5.44c0-1.06-.86-1.92-1.92-1.92h-5.44c-.97,0-1.76-.79-1.76-1.76s.79-1.76,1.76-1.76h5.44c1.06,0,1.92-.86,1.92-1.92v-5.44c0-.97.79-1.76,1.76-1.76s1.76.79,1.76,1.76v5.44c0,1.06.86,1.92,1.92,1.92h5.44c.97,0,1.76.79,1.76,1.76s-.79,1.76-1.76,1.76Z"/>
    <path class="uuid-6ab847a2-0964-4514-b368-e56415330939" d="m214,367.69c-7.95-2.85-19.12-3.61-29.83-3.77v-8.69c0-1.06-.86-1.92-1.92-1.92h-7.36c-1.06,0-1.92.86-1.92,1.92v8.69c-10.71.16-21.88.91-29.83,3.77-9.2,3.3-18.39,15.79-18.13,33.25.12,8.11,2,15.78,5.3,21.59,3.74,6.59,8.97,10.12,14.73,9.87,11.44-.51,18.55-13,19.82-19.57.58-3,1.04-4.93,1.34-6.09,2.68.34,8.08.95,12.38.95s9.71-.61,12.38-.95c.3,1.16.76,3.09,1.34,6.09,1.26,6.57,8.38,19.07,19.82,19.57.19,0,.4,0,.58.01,5.5,0,10.53-3.51,14.14-9.88,3.3-5.81,5.18-13.48,5.3-21.59.25-17.46-8.93-29.95-18.13-33.25Zm-37.19-10.53h3.52v6.73s-.07,0-.1,0c-.56,0-1.11,0-1.66,0s-1.11,0-1.66,0c-.03,0-.07,0-.1,0v-6.73h0Zm35.88,71.41c-.14,0-.27,0-.41,0-9.19-.41-15.18-11.1-16.22-16.46-1.15-5.99-1.86-7.96-1.94-8.17-.28-.76-1.01-1.25-1.8-1.25-.09,0-.18,0-.28.02-.08.01-7.92,1.13-13.49,1.13s-13.41-1.12-13.49-1.13c-.89-.13-1.76.38-2.07,1.23-.08.2-.78,2.17-1.94,8.16-1.03,5.36-7.03,16.05-16.22,16.46-.14,0-.27,0-.41,0-8.38,0-15.38-12.42-15.6-27.68-.23-15.66,7.67-26.74,15.59-29.58,7.9-2.84,19.52-3.47,30.46-3.57,0,0,0,0,0,0,2.46-.02,4.87-.02,7.33,0h.02s0,0,0,0c10.94.1,22.55.73,30.45,3.57,7.92,2.84,15.82,13.92,15.59,29.58-.22,15.27-7.22,27.69-15.6,27.68Z"/>
    <path class="uuid-6ab847a2-0964-4514-b368-e56415330939" d="m202.54,382.45c0-3.53-2.87-6.4-6.4-6.4s-6.4,2.87-6.4,6.4,2.87,6.4,6.4,6.4,6.4-2.87,6.4-6.4Zm-8.97,0c0-1.41,1.15-2.56,2.56-2.56s2.56,1.15,2.56,2.56-1.15,2.56-2.56,2.56-2.56-1.15-2.56-2.56Z"/>
    <path class="uuid-6ab847a2-0964-4514-b368-e56415330939" d="m214.71,387.25c-3.53,0-6.4,2.87-6.4,6.4s2.87,6.4,6.4,6.4,6.4-2.87,6.4-6.4-2.87-6.4-6.4-6.4Zm0,8.97c-1.41,0-2.56-1.15-2.56-2.56s1.15-2.56,2.56-2.56,2.56,1.15,2.56,2.56-1.15,2.56-2.56,2.56Z"/>
  </g>
  <g>
    <path class="uuid-6ab847a2-0964-4514-b368-e56415330939" d="m421.5,371.85h-57.27c-.94,0-1.71.77-1.71,1.71v38.61c0,.94.77,1.71,1.71,1.71h57.27c.94,0,1.71-.77,1.71-1.71v-38.61c0-.94-.77-1.71-1.71-1.71Zm-1.71,38.61h-53.85v-35.19h53.85v35.19Z"/>
    <path class="uuid-6ab847a2-0964-4514-b368-e56415330939" d="m357.03,388.27h-.29v-.29c0-2.44-1.98-4.42-4.42-4.42s-4.42,1.98-4.42,4.42v.29h-.29c-2.44,0-4.42,1.98-4.42,4.42s1.98,4.42,4.42,4.42h.29v.29c0,2.44,1.98,4.42,4.42,4.42s4.42-1.98,4.42-4.42v-.29h.29c2.44,0,4.42-1.98,4.42-4.42,0-2.44-1.98-4.42-4.42-4.42Zm0,5.41h-2c-.94,0-1.71.77-1.71,1.71v1.99c0,.55-.45,1-1,1s-1-.45-1-1v-1.99c0-.94-.77-1.71-1.71-1.71h-2c-.55,0-1-.45-1-1s.45-1,1-1h2c.94,0,1.71-.77,1.71-1.71v-1.99c0-.55.45-1,1-1s1,.45,1,1v1.99c0,.94.77,1.71,1.71,1.71h2c.55,0,1,.45,1,1,0,.55-.45,1-1,1Z"/>
    <path class="uuid-6ab847a2-0964-4514-b368-e56415330939" d="m423.11,367.38h-60.5c-12.86,0-23.32,10.46-23.32,23.32v4.32c0,12.86,10.46,23.32,23.32,23.32h60.5c12.86,0,23.32-10.46,23.32-23.32v-4.32c0-12.86-10.46-23.32-23.32-23.32Zm19.9,27.64c0,10.97-8.93,19.9-19.9,19.9h-60.5c-10.97,0-19.9-8.93-19.9-19.9v-4.32c0-10.97,8.93-19.9,19.9-19.9h60.5c10.97,0,19.9,8.93,19.9,19.9v4.32h0Z"/>
    <path class="uuid-6ab847a2-0964-4514-b368-e56415330939" d="m433.21,386.12c-.6-1.82-2.31-3.13-4.32-3.13-2.51,0-4.55,2.04-4.55,4.55,0,1.94,1.23,3.61,2.95,4.26-1.72.65-2.95,2.31-2.95,4.26,0,2.51,2.04,4.55,4.55,4.55,2.01,0,3.72-1.31,4.32-3.13.6,1.82,2.31,3.13,4.32,3.13,2.51,0,4.55-2.04,4.55-4.55,0-1.94-1.23-3.61-2.95-4.26,1.72-.65,2.95-2.31,2.95-4.26,0-2.51-2.04-4.55-4.55-4.55-2.01,0-3.72,1.31-4.32,3.13Zm-4.32,11.06c-.62,0-1.13-.51-1.13-1.13s.51-1.13,1.13-1.13,1.13.51,1.13,1.13c0,.62-.51,1.13-1.13,1.13Zm0-8.51c-.62,0-1.13-.51-1.13-1.13s.51-1.13,1.13-1.13,1.13.51,1.13,1.13c0,.62-.51,1.13-1.13,1.13Zm8.64-2.26c.62,0,1.13.51,1.13,1.13s-.51,1.13-1.13,1.13-1.13-.51-1.13-1.13.51-1.13,1.13-1.13Zm0,8.51c.62,0,1.13.51,1.13,1.13s-.51,1.13-1.13,1.13-1.13-.51-1.13-1.13.51-1.13,1.13-1.13Zm-4.32-.29c-.43-1.31-1.44-2.36-2.72-2.84,1.28-.48,2.29-1.53,2.72-2.84.43,1.31,1.44,2.36,2.72,2.84-1.28.48-2.29,1.53-2.72,2.84Z"/>
    <rect class="uuid-6ab847a2-0964-4514-b368-e56415330939" x="405.69" y="391.4" width="3.52" height="3.52"/>
    <rect class="uuid-6ab847a2-0964-4514-b368-e56415330939" x="405.69" y="397.55" width="3.52" height="3.52"/>
    <rect class="uuid-6ab847a2-0964-4514-b368-e56415330939" x="405.69" y="403.69" width="3.52" height="3.52"/>
    <rect class="uuid-6ab847a2-0964-4514-b368-e56415330939" x="399.38" y="403.69" width="3.52" height="3.52"/>
    <rect class="uuid-6ab847a2-0964-4514-b368-e56415330939" x="384.42" y="379.33" width="3.52" height="3.52"/>
    <rect class="uuid-6ab847a2-0964-4514-b368-e56415330939" x="384.42" y="385.47" width="3.52" height="3.52"/>
    <rect class="uuid-6ab847a2-0964-4514-b368-e56415330939" x="378.12" y="385.47" width="3.52" height="3.52"/>
    <rect class="uuid-6ab847a2-0964-4514-b368-e56415330939" x="378.12" y="391.62" width="3.52" height="3.52"/>
  </g>
  <g>
    <path class="uuid-6ab847a2-0964-4514-b368-e56415330939" d="m660.71,355.35c0-.76-5.99-1.38-13.67-1.46-.4-.1-.81-.15-1.24-.15s-.83.06-1.22.15c-7.96.05-14.27.68-14.27,1.46,0,.66,4.52,1.22,10.75,1.4-.3.62-.47,1.31-.5,2.04-1.05.54-1.77,1.63-1.77,2.88v11.91c0,.73.24,1.4.65,1.94h-64c.4-.54.65-1.21.65-1.94v-11.91c0-1.31-.79-2.45-1.91-2.96-.03-.55-.14-1.08-.33-1.57,5.91-.26,10.14-.97,10.14-1.79,0-1.05-6.81-1.9-15.2-1.9s-15.2.85-15.2,1.9c0,.84,4.37,1.56,10.43,1.81-.2.54-.32,1.11-.33,1.71-.96.56-1.61,1.61-1.61,2.8v11.91c0,1.19.65,2.23,1.61,2.8v4.4c0,2.9,2.36,5.26,5.26,5.26h12.86v30.42c0,.97.79,1.75,1.75,1.75h4.39v10.11c0,2.18,1.92,3.95,4.28,3.95h30.45c2.36,0,4.28-1.77,4.28-3.95v-10.11h4.24c.97,0,1.75-.79,1.75-1.75v-30.42h12.86c2.9,0,5.26-2.36,5.26-5.26v-4.32c1.04-.54,1.75-1.63,1.75-2.88v-11.91c0-1.26-.72-2.34-1.76-2.88-.03-.73-.21-1.43-.51-2.06,5.92-.2,10.17-.74,10.17-1.38Zm-14.91,1.9c.77,0,1.42.49,1.66,1.18h-3.31c.24-.69.89-1.18,1.66-1.18Zm-50.19,25.31c.19-.08.38-.15.58-.21.03,0,.05-.02.08-.02.18-.05.36-.1.55-.14.03,0,.07-.02.1-.02.2-.04.4-.07.6-.09.04,0,.09,0,.13-.01.21-.02.42-.03.64-.03h18.12c.22,0,.43.01.64.03.04,0,.09,0,.13.01.2.02.41.05.6.09.03,0,.07.02.1.02.18.04.37.09.55.14.03,0,.05.02.08.02.2.06.39.13.58.21.03.01.06.03.1.04.38.17.75.37,1.09.59.03.02.06.04.09.06.17.12.33.24.49.37.01.01.03.02.04.04.14.11.27.23.39.36.04.04.08.08.13.12.12.13.25.26.36.4.05.06.1.12.14.18.07.09.13.17.2.26.05.08.11.15.16.23.72,1.1,1.14,2.41,1.14,3.83v4.38c0,3.87-3.15,7.02-7.02,7.02h-18.12c-3.87,0-7.02-3.15-7.02-7.02v-4.38c0-1.41.42-2.72,1.14-3.82.05-.08.11-.16.16-.24.06-.09.13-.17.19-.26.05-.06.1-.13.15-.19.11-.14.23-.27.36-.39.04-.04.09-.09.13-.13.12-.12.25-.24.39-.35.02-.01.03-.03.05-.04.16-.13.32-.25.49-.37.03-.02.06-.04.09-.06.34-.23.71-.43,1.09-.59.03-.01.06-.03.1-.04Zm-26.74-25.31s.06,0,.1,0c.75.02,1.38.5,1.61,1.18h-3.31c.23-.67.86-1.15,1.61-1.17Zm-3.31,4.68h7.02v11.38h-7.02v-11.38Zm3.36,20.6c-.97,0-1.75-.79-1.75-1.75v-3.95h3.51v.45c0,.97.79,1.75,1.75,1.75h22.62c-.05.02-.1.04-.15.06-.14.05-.27.1-.41.15-.09.03-.17.07-.25.1-.18.07-.35.15-.52.23-.1.05-.2.1-.29.15-.09.05-.18.1-.28.15-.1.06-.2.11-.3.17-.15.09-.3.19-.44.28-.1.07-.19.14-.29.21-.08.06-.17.12-.25.19-.09.07-.18.14-.27.22-.14.12-.28.24-.42.36-.07.06-.13.12-.19.18-.13.12-.25.25-.38.38-.03.03-.06.06-.08.09-.16.18-.31.36-.46.55-.01.01-.02.02-.03.04h-21.11Zm54.52,45.79c0,.17-.31.44-.78.44h-30.45c-.47,0-.78-.26-.78-.44v-16.88c0-.17.31-.44.78-.44h9.98v6.54c0,.6.31,1.17.82,1.49.51.32,1.15.36,1.7.09l2.86-1.38,2.86,1.38c.54.26,1.18.23,1.7-.09.51-.32.82-.88.82-1.49v-6.54h9.71c.47,0,.78.26.78.44v16.88h0Zm-17.74-13.58v-3.74h3.75v3.74l-1.11-.54c-.48-.23-1.04-.23-1.53,0l-1.11.54Zm23.74-.04h-2.49v-3.26c0-2.18-1.92-3.95-4.28-3.95h-30.45c-2.36,0-4.28,1.77-4.28,3.95v3.26h-2.63v-28.66h2.92c-.28.95-.44,1.96-.44,3v4.38c0,5.8,4.72,10.52,10.52,10.52h18.12c5.8,0,10.52-4.72,10.52-10.52v-4.38c0-1.04-.15-2.05-.44-3h2.92v28.66Zm18.12-33.92c0,.97-.79,1.75-1.75,1.75h-21.11s-.02-.03-.04-.04c-.15-.18-.3-.36-.45-.54-.03-.03-.06-.07-.09-.1-.12-.13-.24-.25-.37-.37-.07-.06-.13-.13-.2-.19-.13-.12-.27-.24-.4-.35-.09-.08-.19-.15-.28-.23-.08-.06-.16-.13-.25-.19-.1-.07-.19-.14-.29-.21-.14-.1-.29-.19-.44-.28-.1-.06-.2-.12-.3-.17-.09-.05-.18-.1-.28-.15-.1-.05-.19-.1-.29-.15-.17-.08-.34-.16-.52-.23-.08-.04-.17-.07-.25-.1-.13-.05-.27-.1-.41-.15-.05-.02-.1-.04-.15-.06h22.62c.97,0,1.75-.79,1.75-1.75v-.45h3.51v3.95h0Zm1.75-7.46h-7.02v-11.38h7.02v11.38Z"/>
    <path class="uuid-6ab847a2-0964-4514-b368-e56415330939" d="m607.36,399.13c4.35,0,7.89-3.54,7.89-7.89s-3.54-7.89-7.89-7.89-7.89,3.54-7.89,7.89,3.54,7.89,7.89,7.89Zm0-12.28c2.42,0,4.39,1.97,4.39,4.38s-1.97,4.38-4.39,4.38-4.38-1.97-4.38-4.38,1.97-4.38,4.38-4.38Z"/>
  </g>
  <g>
    <path class="uuid-6ab847a2-0964-4514-b368-e56415330939" d="m816.02,415.05c0,2.98,2.43,5.41,5.41,5.41s5.41-2.43,5.41-5.41-2.43-5.41-5.41-5.41c-2.98,0-5.41,2.43-5.41,5.41Zm7.11,0c0,.94-.76,1.7-1.7,1.7s-1.7-.76-1.7-1.7.76-1.7,1.7-1.7,1.7.76,1.7,1.7Z"/>
    <path class="uuid-6ab847a2-0964-4514-b368-e56415330939" d="m821.43,401.13c2.81,0,5.1-2.29,5.1-5.1s-2.29-5.1-5.1-5.1-5.1,2.29-5.1,5.1,2.29,5.1,5.1,5.1Zm0-6.49c.77,0,1.39.62,1.39,1.39s-.62,1.39-1.39,1.39-1.39-.62-1.39-1.39.62-1.39,1.39-1.39Z"/>
    <path class="uuid-6ab847a2-0964-4514-b368-e56415330939" d="m821.43,388.92c2.81,0,5.1-2.29,5.1-5.1s-2.29-5.1-5.1-5.1-5.1,2.29-5.1,5.1,2.29,5.1,5.1,5.1Zm0-6.49c.77,0,1.39.62,1.39,1.39s-.62,1.39-1.39,1.39-1.39-.62-1.39-1.39.62-1.39,1.39-1.39Z"/>
    <path class="uuid-6ab847a2-0964-4514-b368-e56415330939" d="m809.53,376.71c2.81,0,5.1-2.29,5.1-5.1s-2.29-5.1-5.1-5.1-5.1,2.29-5.1,5.1,2.29,5.1,5.1,5.1Zm0-6.49c.77,0,1.39.62,1.39,1.39s-.62,1.39-1.39,1.39-1.39-.62-1.39-1.39.62-1.39,1.39-1.39Z"/>
    <path class="uuid-6ab847a2-0964-4514-b368-e56415330939" d="m809.53,388.92c2.81,0,5.1-2.29,5.1-5.1s-2.29-5.1-5.1-5.1-5.1,2.29-5.1,5.1,2.29,5.1,5.1,5.1Zm0-6.49c.77,0,1.39.62,1.39,1.39s-.62,1.39-1.39,1.39-1.39-.62-1.39-1.39.62-1.39,1.39-1.39Z"/>
    <path class="uuid-6ab847a2-0964-4514-b368-e56415330939" d="m821.43,376.71c2.81,0,5.1-2.29,5.1-5.1s-2.29-5.1-5.1-5.1-5.1,2.29-5.1,5.1,2.29,5.1,5.1,5.1Zm0-6.49c.77,0,1.39.62,1.39,1.39s-.62,1.39-1.39,1.39-1.39-.62-1.39-1.39.62-1.39,1.39-1.39Z"/>
    <path class="uuid-6ab847a2-0964-4514-b368-e56415330939" d="m833.33,378.72c-2.81,0-5.1,2.29-5.1,5.1s2.29,5.1,5.1,5.1,5.1-2.29,5.1-5.1-2.29-5.1-5.1-5.1Zm0,6.49c-.77,0-1.39-.62-1.39-1.39s.62-1.39,1.39-1.39,1.39.62,1.39,1.39-.62,1.39-1.39,1.39Z"/>
    <path class="uuid-6ab847a2-0964-4514-b368-e56415330939" d="m833.33,366.5c-2.81,0-5.1,2.29-5.1,5.1s2.29,5.1,5.1,5.1,5.1-2.29,5.1-5.1-2.29-5.1-5.1-5.1Zm0,6.49c-.77,0-1.39-.62-1.39-1.39s.62-1.39,1.39-1.39,1.39.62,1.39,1.39-.62,1.39-1.39,1.39Z"/>
    <path class="uuid-6ab847a2-0964-4514-b368-e56415330939" d="m833.33,390.93c-2.81,0-5.1,2.29-5.1,5.1s2.29,5.1,5.1,5.1,5.1-2.29,5.1-5.1-2.29-5.1-5.1-5.1Zm0,6.49c-.77,0-1.39-.62-1.39-1.39s.62-1.39,1.39-1.39,1.39.62,1.39,1.39-.62,1.39-1.39,1.39Z"/>
    <path class="uuid-6ab847a2-0964-4514-b368-e56415330939" d="m833.33,429.43c-2.81,0-5.1,2.29-5.1,5.1s2.29,5.1,5.1,5.1,5.1-2.29,5.1-5.1-2.29-5.1-5.1-5.1Zm0,6.49c-.77,0-1.39-.62-1.39-1.39s.62-1.39,1.39-1.39,1.39.62,1.39,1.39-.62,1.39-1.39,1.39Z"/>
    <path class="uuid-6ab847a2-0964-4514-b368-e56415330939" d="m809.53,429.43c-2.81,0-5.1,2.29-5.1,5.1s2.29,5.1,5.1,5.1,5.1-2.29,5.1-5.1-2.29-5.1-5.1-5.1Zm0,6.49c-.77,0-1.39-.62-1.39-1.39s.62-1.39,1.39-1.39,1.39.62,1.39,1.39-.62,1.39-1.39,1.39Z"/>
    <path class="uuid-6ab847a2-0964-4514-b368-e56415330939" d="m809.53,401.13c2.81,0,5.1-2.29,5.1-5.1s-2.29-5.1-5.1-5.1-5.1,2.29-5.1,5.1,2.29,5.1,5.1,5.1Zm0-6.49c.77,0,1.39.62,1.39,1.39s-.62,1.39-1.39,1.39-1.39-.62-1.39-1.39.62-1.39,1.39-1.39Z"/>
    <path class="uuid-6ab847a2-0964-4514-b368-e56415330939" d="m821.43,429.43c-2.81,0-5.1,2.29-5.1,5.1s2.29,5.1,5.1,5.1,5.1-2.29,5.1-5.1-2.29-5.1-5.1-5.1Zm0,6.49c-.77,0-1.39-.62-1.39-1.39s.62-1.39,1.39-1.39,1.39.62,1.39,1.39-.62,1.39-1.39,1.39Z"/>
    <path class="uuid-6ab847a2-0964-4514-b368-e56415330939" d="m832.87,358.62h-22.88c-6.14,0-11.13,4.99-11.13,11.13v65.55c0,6.14,4.99,11.13,11.13,11.13h22.88c6.14,0,11.13-4.99,11.13-11.13v-65.55c0-6.14-4.99-11.13-11.13-11.13Zm7.42,76.68c0,4.09-3.33,7.42-7.42,7.42h-22.88c-4.09,0-7.42-3.33-7.42-7.42v-65.55c0-4.09,3.33-7.42,7.42-7.42h22.88c4.09,0,7.42,3.33,7.42,7.42v65.55h0Z"/>
    <path class="uuid-6ab847a2-0964-4514-b368-e56415330939" d="m809.06,415.05c0,6.82,5.55,12.37,12.37,12.37s12.37-5.55,12.37-12.37-5.55-12.37-12.37-12.37-12.37,5.55-12.37,12.37Zm21.03,0c0,4.77-3.88,8.66-8.66,8.66s-8.66-3.88-8.66-8.66,3.88-8.66,8.66-8.66c4.77,0,8.66,3.88,8.66,8.66Z"/>
    <path class="uuid-6ab847a2-0964-4514-b368-e56415330939" d="m818.42,352.12c-1.02,0-1.86.83-1.86,1.86s.83,1.86,1.86,1.86h6.03c1.02,0,1.86-.83,1.86-1.86s-.83-1.86-1.86-1.86h-6.03Z"/>
    <path class="uuid-6ab847a2-0964-4514-b368-e56415330939" d="m833.26,347.64c0-1.02-.83-1.86-1.86-1.86h-19.94c-1.02,0-1.86.83-1.86,1.86s.83,1.86,1.86,1.86h19.94c1.02,0,1.86-.83,1.86-1.86Z"/>
    <path class="uuid-6ab847a2-0964-4514-b368-e56415330939" d="m804.61,343h33.64c1.02,0,1.86-.83,1.86-1.86s-.83-1.86-1.86-1.86h-33.64c-1.02,0-1.86.83-1.86,1.86s.83,1.86,1.86,1.86Z"/>
  </g>
  <g>
    <path class="uuid-6ab847a2-0964-4514-b368-e56415330939" d="m658.64,646.85h-100.93v-77.9c0-1.14-.93-2.07-2.07-2.07s-2.07.93-2.07,2.07v79.97c0,1.14.93,2.07,2.07,2.07h103c1.14,0,2.07-.93,2.07-2.07s-.93-2.07-2.07-2.07Z"/>
    <path class="uuid-6ab847a2-0964-4514-b368-e56415330939" d="m575.14,618.64h5.52v7.07c0,1.14.93,2.07,2.07,2.07s2.07-.93,2.07-2.07v-7.07h5.53c1.14,0,2.07-.93,2.07-2.07v-26.82c0-1.14-.93-2.07-2.07-2.07h-5.53v-7.86c0-1.14-.93-2.07-2.07-2.07s-2.07.93-2.07,2.07v7.86h-5.52c-1.14,0-2.07.93-2.07,2.07v26.82c0,1.14.93,2.07,2.07,2.07Zm2.07-26.82h11.06v22.68h-11.06v-22.68Z"/>
    <path class="uuid-6ab847a2-0964-4514-b368-e56415330939" d="m600.84,628.13h5.7v.34c0,1.14.93,2.07,2.07,2.07s2.07-.93,2.07-2.07v-.34h5.36c1.14,0,2.07-.93,2.07-2.07v-10.25c0-1.14-.93-2.07-2.07-2.07h-5.36v-18.04c0-1.14-.93-2.07-2.07-2.07s-2.07.93-2.07,2.07v18.04h-5.7c-1.14,0-2.07.93-2.07,2.07v10.25c0,1.14.93,2.07,2.07,2.07Zm2.07-10.25h11.06v6.11h-11.06v-6.11Z"/>
    <path class="uuid-6ab847a2-0964-4514-b368-e56415330939" d="m626.54,618.64h5.53v20.19c0,1.14.93,2.07,2.07,2.07s2.07-.93,2.07-2.07v-20.19h5.52c1.14,0,2.07-.93,2.07-2.07v-40.1c0-1.14-.93-2.07-2.07-2.07h-5.52v-9.03c0-1.14-.93-2.07-2.07-2.07s-2.07.93-2.07,2.07v9.03h-5.53c-1.14,0-2.07.93-2.07,2.07v40.1c0,1.14.93,2.07,2.07,2.07Zm2.07-40.1h11.06v35.96h-11.06v-35.96Z"/>
  </g>
  <g>
    <path class="uuid-6ab847a2-0964-4514-b368-e56415330939" d="m844.16,589.44h-21.41v-5.95c0-1.94-1.17-3.69-2.96-4.43-.59-.25-1.22-.37-1.84-.37-1.24,0-2.47.48-3.39,1.4l-23.77,23.65c-.9.9-1.41,2.12-1.41,3.4s.51,2.5,1.41,3.4l23.77,23.65c.92.91,2.14,1.4,3.39,1.4.62,0,1.24-.12,1.84-.37,1.79-.74,2.96-2.49,2.96-4.43v-5.95h21.41c2.65,0,4.8-2.15,4.8-4.8v-25.8c0-2.65-2.15-4.8-4.8-4.8Zm0,30.6h-26.2v10.75s-23.77-23.65-23.77-23.65l23.77-23.65v10.75s26.2,0,26.2,0v25.8h0Z"/>
    <path class="uuid-6ab847a2-0964-4514-b368-e56415330939" d="m821.43,553.57c-29.59,0-53.57,23.98-53.57,53.57s23.98,53.57,53.57,53.57,53.57-23.98,53.57-53.57-23.98-53.57-53.57-53.57Zm0,102.34c-26.89,0-48.77-21.88-48.77-48.77s21.88-48.77,48.77-48.77,48.77,21.88,48.77,48.77-21.88,48.77-48.77,48.77Z"/>
  </g>
  <g>
    <path class="uuid-6ab847a2-0964-4514-b368-e56415330939" d="m295.79,599.39h-124.73v-13.91c0-3.18-2.58-5.76-5.76-5.76h-34.54c-3.18,0-5.76,2.58-5.76,5.76v54.21c0,3.18,2.58,5.76,5.76,5.76h165.03c3.18,0,5.76-2.58,5.76-5.76v-34.54c0-3.18-2.58-5.76-5.76-5.76Zm-5.76,34.54h-153.52v-42.7h23.03v13.91c0,3.18,2.58,5.76,5.76,5.76h124.73v23.03Z"/>
    <path class="uuid-6ab847a2-0964-4514-b368-e56415330939" d="m295.79,694.38h-124.73v-13.91c0-3.18-2.58-5.76-5.76-5.76h-34.54c-3.18,0-5.76,2.58-5.76,5.76v54.21c0,3.18,2.58,5.76,5.76,5.76h165.03c3.18,0,5.76-2.58,5.76-5.76v-34.54c0-3.18-2.58-5.76-5.76-5.76Zm-5.76,34.54h-153.52v-42.7h23.03v13.91c0,3.18,2.58,5.76,5.76,5.76h124.73v23.03Z"/>
    <path class="uuid-6ab847a2-0964-4514-b368-e56415330939" d="m295.79,789.37h-124.73v-13.91c0-3.18-2.58-5.76-5.76-5.76h-34.54c-3.18,0-5.76,2.58-5.76,5.76v54.21c0,3.18,2.58,5.76,5.76,5.76h165.03c3.18,0,5.76-2.58,5.76-5.76v-34.54c0-3.18-2.58-5.76-5.76-5.76Zm-5.76,34.54h-153.52v-42.7h23.03v13.91c0,3.18,2.58,5.76,5.76,5.76h124.73v23.03Z"/>
    <path class="uuid-6ab847a2-0964-4514-b368-e56415330939" d="m337.05,645.44h43.27c6.87,8.2,17.18,13.43,28.69,13.43,20.63,0,37.42-16.79,37.42-37.42s-16.79-37.42-37.42-37.42c-12.39,0-23.38,6.05-30.19,15.35h-41.77c-12.7,0-23.03,10.33-23.03,23.03s10.33,23.03,23.03,23.03Zm46.17-26.33c.02-.2.04-.41.06-.61.08-.73.19-1.46.33-2.17,0-.04.01-.07.02-.11.15-.75.35-1.48.57-2.21.05-.18.11-.35.17-.53.23-.7.47-1.39.75-2.06,0-.02.01-.04.02-.06.31-.74.66-1.45,1.04-2.15.04-.08.09-.16.13-.24,4.42-7.99,12.93-13.43,22.69-13.43,14.28,0,25.91,11.62,25.91,25.91s-11.62,25.91-25.91,25.91c-8.86,0-16.69-4.48-21.36-11.28-.11-.16-.22-.33-.32-.5-.32-.49-.62-.98-.91-1.49-.11-.19-.22-.39-.32-.58-.29-.54-.55-1.09-.8-1.66-.07-.15-.14-.29-.2-.44-.3-.73-.58-1.47-.82-2.23-.01-.04-.02-.08-.03-.13-.21-.7-.39-1.41-.55-2.12-.05-.21-.08-.43-.13-.65-.11-.58-.2-1.16-.27-1.75-.03-.23-.06-.45-.08-.68-.07-.79-.12-1.58-.12-2.39,0-.79.05-1.57.12-2.34Zm-46.17-8.22h36.06c-.03.11-.05.22-.08.33-.19.65-.35,1.31-.5,1.97-.03.14-.07.27-.1.41-.17.79-.32,1.59-.43,2.4-.02.12-.03.24-.05.37-.09.68-.16,1.36-.22,2.05-.02.2-.03.41-.05.61-.05.8-.09,1.61-.09,2.42,0,.97.05,1.93.12,2.88.01.18.02.36.04.55.08.9.2,1.8.34,2.68.03.21.07.41.11.62.16.89.34,1.77.57,2.63.04.14.08.27.12.41.21.77.44,1.52.7,2.27.05.14.08.29.13.44h-36.67c-6.35,0-11.51-5.17-11.51-11.51s5.17-11.51,11.51-11.51Z"/>
    <path class="uuid-6ab847a2-0964-4514-b368-e56415330939" d="m423.4,692.46h-43.27c-6.87-8.2-17.18-13.43-28.69-13.43-20.63,0-37.42,16.79-37.42,37.42s16.79,37.42,37.42,37.42c12.39,0,23.38-6.05,30.19-15.35h41.77c12.7,0,23.03-10.33,23.03-23.03s-10.33-23.03-23.03-23.03Zm-46.17,26.33c-.02.2-.04.41-.06.61-.08.73-.19,1.46-.33,2.17,0,.04-.01.07-.02.11-.15.75-.35,1.48-.57,2.2-.05.18-.11.35-.17.53-.23.7-.47,1.39-.75,2.06,0,.02-.01.04-.02.06-.31.74-.66,1.45-1.04,2.15-.04.08-.09.16-.13.24-4.42,7.99-12.93,13.43-22.69,13.43-14.28,0-25.91-11.62-25.91-25.91s11.62-25.91,25.91-25.91c8.86,0,16.69,4.48,21.36,11.28.11.16.22.33.32.5.32.49.62.98.91,1.49.11.19.22.39.32.58.29.54.55,1.09.8,1.66.07.15.14.29.2.44.3.73.58,1.47.82,2.23.01.04.02.08.03.13.21.7.39,1.41.55,2.12.05.21.08.43.13.65.11.58.2,1.16.27,1.75.03.23.06.45.08.68.07.79.12,1.58.12,2.39,0,.79-.05,1.57-.12,2.34Zm46.17,8.22h-36.06c.03-.11.05-.22.08-.33.19-.65.35-1.31.5-1.97.03-.14.07-.27.09-.41.17-.79.31-1.59.43-2.4.02-.12.03-.24.05-.37.09-.68.16-1.36.22-2.05.02-.2.03-.41.05-.61.05-.8.09-1.61.09-2.42,0-.97-.05-1.93-.12-2.88-.01-.18-.03-.36-.04-.55-.08-.9-.2-1.8-.34-2.68-.03-.21-.07-.41-.11-.62-.16-.89-.34-1.77-.57-2.63-.04-.14-.08-.27-.12-.41-.21-.77-.44-1.52-.7-2.27-.05-.14-.08-.29-.13-.44h36.67c6.35,0,11.51,5.17,11.51,11.51,0,6.35-5.16,11.51-11.51,11.51Z"/>
    <path class="uuid-6ab847a2-0964-4514-b368-e56415330939" d="m409.01,774.01c-12.39,0-23.38,6.05-30.19,15.35h-41.77c-12.7,0-23.03,10.33-23.03,23.03s10.33,23.03,23.03,23.03h43.27c6.87,8.2,17.18,13.43,28.69,13.43,20.63,0,37.42-16.79,37.42-37.42s-16.79-37.42-37.42-37.42Zm-71.96,49.89c-6.35,0-11.51-5.17-11.51-11.51s5.17-11.51,11.51-11.51h36.06c-.03.11-.05.22-.08.33-.19.65-.35,1.31-.5,1.97-.03.14-.07.27-.1.41-.17.79-.32,1.59-.43,2.4-.02.12-.03.24-.05.37-.09.68-.16,1.36-.22,2.05-.02.2-.03.41-.05.61-.05.8-.09,1.61-.09,2.42,0,.97.05,1.93.12,2.88.01.18.02.36.04.55.08.9.2,1.8.34,2.68.03.21.07.41.11.62.16.89.34,1.77.57,2.63.04.14.08.27.12.41.21.77.44,1.52.7,2.27.05.14.08.29.13.44h-36.67Zm71.96,13.43c-8.86,0-16.69-4.48-21.36-11.28-.11-.16-.22-.33-.32-.5-.32-.49-.62-.98-.91-1.49-.11-.19-.22-.39-.32-.58-.29-.54-.55-1.09-.8-1.66-.07-.15-.14-.29-.2-.44-.3-.73-.58-1.47-.82-2.23-.01-.04-.02-.08-.03-.13-.21-.7-.39-1.41-.55-2.12-.05-.21-.08-.43-.13-.65-.11-.58-.2-1.16-.27-1.75-.03-.23-.06-.45-.08-.68-.07-.79-.12-1.58-.12-2.39s.05-1.57.12-2.34c.02-.2.04-.41.06-.61.08-.73.19-1.46.33-2.17,0-.04.01-.07.02-.11.15-.75.35-1.48.57-2.21.05-.18.11-.35.17-.53.23-.7.47-1.39.75-2.06,0-.02.01-.04.02-.06.31-.74.66-1.45,1.04-2.15.04-.08.09-.16.13-.24,4.42-7.99,12.93-13.43,22.69-13.43,14.28,0,25.91,11.62,25.91,25.91,0,14.28-11.62,25.91-25.91,25.91Z"/>
  </g>
  <g>
    <path class="uuid-6ab847a2-0964-4514-b368-e56415330939" d="m652.46,794.21h-90.63c-4.55,0-8.25,3.7-8.25,8.25v37.93c0,4.55,3.7,8.25,8.25,8.25h90.63c4.55,0,8.25-3.7,8.25-8.25v-37.93c0-4.55-3.7-8.25-8.25-8.25Zm4.78,46.19c0,2.63-2.14,4.78-4.78,4.78h-90.63c-2.63,0-4.78-2.14-4.78-4.78v-2.03h100.19v2.03h0Zm0-5.5h-100.19v-1.45h100.19v1.45Zm0-4.92h-100.19v-27.51c0-2.63,2.14-4.78,4.78-4.78h90.63c2.63,0,4.78,2.14,4.78,4.78v27.51h0Z"/>
    <polygon class="uuid-6ab847a2-0964-4514-b368-e56415330939" points="614.08 808.8 608.88 811.8 608.88 805.79 605.4 805.79 605.4 811.8 600.2 808.8 598.47 811.81 603.67 814.81 598.47 817.81 600.2 820.82 605.4 817.82 605.4 823.82 608.88 823.82 608.88 817.82 614.08 820.82 615.81 817.81 610.62 814.81 615.81 811.81 614.08 808.8"/>
  </g>
  <g>
    <path class="uuid-6ab847a2-0964-4514-b368-e56415330939" d="m872.09,816.56l-43.62-43.62c-1.88-1.88-4.38-2.91-7.04-2.91s-5.16,1.03-7.04,2.91l-43.62,43.62c-1.88,1.88-2.91,4.38-2.91,7.04,0,2.66,1.03,5.16,2.91,7.04,1.88,1.88,4.38,2.91,7.04,2.91s5.16-1.04,7.04-2.91l1.51-1.51v34.27c0,5.21,4.24,9.45,9.45,9.45h51.24c5.21,0,9.45-4.24,9.45-9.45v-34.27l1.51,1.51c1.88,1.88,4.38,2.91,7.04,2.91s5.16-1.04,7.04-2.91c1.88-1.88,2.91-4.38,2.91-7.04s-1.04-5.16-2.91-7.04Zm-19.56,46.83c0,3.02-2.45,5.47-5.47,5.47h-51.24c-3.02,0-5.47-2.45-5.47-5.47v-38.25l31.09-31.09,31.09,31.09v38.25Zm16.75-35.57c-1.13,1.13-2.63,1.75-4.22,1.75s-3.09-.62-4.22-1.75l-4.91-4.91h0s-33.08-33.08-33.08-33.08c-.39-.39-.9-.58-1.41-.58-.51,0-1.02.19-1.41.58l-37.99,37.99c-1.13,1.13-2.63,1.75-4.22,1.75s-3.09-.62-4.22-1.75c-1.13-1.13-1.75-2.63-1.75-4.22s.62-3.09,1.75-4.22l43.62-43.62c1.13-1.13,2.63-1.75,4.22-1.75s3.09.62,4.22,1.75l43.62,43.62c1.13,1.13,1.75,2.63,1.75,4.22s-.62,3.09-1.75,4.22Z"/>
    <path class="uuid-6ab847a2-0964-4514-b368-e56415330939" d="m819.88,810.91l-6.68,6.68c-.78.78-.78,2.04,0,2.81l1.86,1.86h-14.5c-1.1,0-1.99.89-1.99,1.99v9.45c0,1.1.89,1.99,1.99,1.99h42.11c.8,0,1.53-.48,1.84-1.23.31-.74.14-1.6-.43-2.17l-21.39-21.39c-.37-.37-.88-.58-1.41-.58-.53,0-1.03.21-1.41.58Zm17.99,20.81h-35.32v-5.47h17.31s0,0,0,0c1.1,0,1.99-.89,1.99-1.99,0-.61-.27-1.16-.71-1.52l-3.74-3.74,3.87-3.87,16.58,16.58Z"/>
    <path class="uuid-6ab847a2-0964-4514-b368-e56415330939" d="m842.67,840.19h-42.11c-.8,0-1.53.48-1.84,1.23-.31.74-.14,1.6.43,2.17l21.39,21.39c.37.37.88.58,1.41.58s1.03-.21,1.41-.58l6.68-6.68c.78-.78.78-2.04,0-2.81l-1.86-1.86h14.5c1.1,0,1.99-.89,1.99-1.99v-9.45c0-1.1-.89-1.99-1.99-1.99Zm-1.99,9.45h-17.31c-.81,0-1.53.48-1.84,1.23-.31.74-.14,1.6.43,2.17l3.85,3.85-3.87,3.87-16.58-16.58h35.32v5.47Z"/>
  </g>
</svg>